<?xml version="1.0" encoding="UTF-8" standalone="no"?>
<!-- Created with Inkscape (http://www.inkscape.org/) -->

<svg
   width="9.9999065mm"
   height="8.0000296mm"
   viewBox="0 0 9.9999065 8.0000296"
   version="1.1"
   id="svg1"
   xml:space="preserve"
   xmlns="http://www.w3.org/2000/svg"
   xmlns:svg="http://www.w3.org/2000/svg"><defs
     id="defs1" /><g
     id="layer1"
     transform="translate(-74.904213,-237.82915)"><path
       d="m 75.764109,237.82915 c -0.476382,0 -0.859896,0.38352 -0.859896,0.8599 v 0.28008 c 0,0.47639 0.383514,0.8599 0.859896,0.8599 h 8.280115 c 0.476382,0 0.859896,-0.38351 0.859896,-0.8599 v -0.28008 c 0,-0.47638 -0.383514,-0.8599 -0.859896,-0.8599 z m 0,2.99982 c -0.476382,0 -0.859896,0.38351 -0.859896,0.8599 v 0.2806 c 0,0.47638 0.383514,0.85989 0.859896,0.85989 h 8.280115 c 0.476382,0 0.859896,-0.38351 0.859896,-0.85989 v -0.2806 c 0,-0.47639 -0.383514,-0.8599 -0.859896,-0.8599 z m 0,3.00033 c -0.476382,0 -0.859896,0.38352 -0.859896,0.8599 v 0.28009 c 0,0.47638 0.383514,0.85989 0.859896,0.85989 h 8.280115 c 0.476382,0 0.859896,-0.38351 0.859896,-0.85989 v -0.28009 c 0,-0.47638 -0.383514,-0.8599 -0.859896,-0.8599 z"
       style="fill:#ffffff;stroke-width:0.209171"
       id="path1" /></g></svg>
