<?xml version="1.0" encoding="UTF-8" standalone="no"?>
<!-- Created with Inkscape (http://www.inkscape.org/) -->

<svg
   width="18.101395mm"
   height="18.208559mm"
   viewBox="0 0 18.101395 18.208559"
   version="1.1"
   id="svg1"
   xmlns="http://www.w3.org/2000/svg"
   xmlns:svg="http://www.w3.org/2000/svg">
  <defs
     id="defs1" />
  <g
     id="layer1"
     transform="translate(-71.004623,-138.70638)">
    <path
       d="m 80.055579,139.35635 -8.401038,9.25267 h 16.801558 z m -6.093169,9.69347 c -0.0081,0.002 -0.01447,0.009 -0.01447,0.0176 v 7.17992 c 0,0.01 0.0079,0.0176 0.01757,0.0176 h 12.179618 c 0.0096,0 0.01757,-0.008 0.01757,-0.0176 v -7.17992 c 0,-0.01 -0.0079,-0.0176 -0.01757,-0.0176 H 73.965511 c -3.01e-4,0 -7.95e-4,0 -0.001,0 0,0 -5.17e-4,0 -5.17e-4,0 -5.51e-4,5e-5 -0.001,-1.1e-4 -0.0016,0 z"
       style="fill:none;stroke:#ffffff;stroke-width:1.3;stroke-linejoin:round;stroke-dasharray:none"
       id="path2" />
  </g>
</svg>
