<?xml version="1.0" encoding="UTF-8" standalone="no"?>
<!-- Created with Inkscape (http://www.inkscape.org/) -->

<svg
   width="12.13628mm"
   height="12.136281mm"
   viewBox="0 0 12.13628 12.136281"
   version="1.1"
   id="svg1"
   xml:space="preserve"
   xmlns="http://www.w3.org/2000/svg"
   xmlns:svg="http://www.w3.org/2000/svg"><defs
     id="defs1" /><g
     id="layer1"
     transform="translate(-70.925611,-248.46103)"><g
       id="layer1-2"
       transform="rotate(-45,335.92692,65.25981)"><path
         d="m 18.715653,8.0000285 c -0.396529,0 -0.715718,0.319189 -0.715718,0.7157186 v 6.2843709 1.999878 6.284371 c 0,0.396529 0.319189,0.715718 0.715718,0.715718 h 0.568441 c 0.39653,0 0.715719,-0.319189 0.715719,-0.715718 V 16.999996 15.000118 8.7157471 c 0,-0.3965296 -0.319189,-0.7157186 -0.715719,-0.7157186 z"
         style="fill:#ffffff;stroke-width:0.264583"
         id="path28" /><path
         d="m 17.999935,16.999996 v -1.999878 h -6.284371 c -0.39653,0 -0.715719,0.319189 -0.715719,0.715719 v 0.56844 c 0,0.39653 0.319189,0.715719 0.715719,0.715719 z"
         style="fill:#66ff00;stroke-width:0.264583"
         id="path27" /><path
         d="m 19.999813,15.000118 v 1.999878 h 6.284371 c 0.396529,0 0.715718,-0.319189 0.715718,-0.715719 v -0.56844 c 0,-0.39653 -0.319189,-0.715719 -0.715718,-0.715719 z"
         style="fill:#ff0000;stroke-width:0.264583"
         id="path24" /></g></g></svg>
