<?xml version="1.0" encoding="UTF-8" standalone="no"?>
<!-- Created with Inkscape (http://www.inkscape.org/) -->

<svg
   width="33.523499mm"
   height="34.111828mm"
   viewBox="0 0 33.523499 34.111828"
   version="1.1"
   id="svg1"
   xmlns="http://www.w3.org/2000/svg"
   xmlns:svg="http://www.w3.org/2000/svg">
  <defs
     id="defs1" />
  <g
     id="layer1"
     transform="translate(-91.665776,-125.02808)">
    <path
       d="m 104.91608,126.27808 a 12,12 0 0 0 -12.000304,11.99978 12,12 0 0 0 12.000304,12.00031 12,12 0 0 0 7.93388,-2.99724 c 0.0281,-0.0583 0.0665,-0.11296 0.11472,-0.16123 l 0.20464,-0.20515 c 0.0639,-0.0639 0.13898,-0.10992 0.21911,-0.1385 a 12,12 0 0 0 3.52743,-8.49819 12,12 0 0 0 -11.99978,-11.99978 z m 8.47235,20.49797 a 12,12 0 0 1 -0.53847,0.50488 c -0.1099,0.22809 -0.0661,0.51368 0.12919,0.709 l 9.72137,9.72137 c 0.24527,0.24527 0.63373,0.25201 0.87075,0.015 l 0.20464,-0.20516 c 0.23702,-0.23701 0.23079,-0.62496 -0.0145,-0.87023 l -9.72137,-9.72137 c -0.17914,-0.17913 -0.43458,-0.23089 -0.65164,-0.15348 z"
       style="fill:none;stroke:#ffffff;stroke-width:2.5"
       id="path8" />
  </g>
</svg>
