<?xml version="1.0" encoding="UTF-8" standalone="no"?>
<!-- Created with Inkscape (http://www.inkscape.org/) -->

<svg
   width="46.043079mm"
   height="34.000111mm"
   viewBox="0 0 46.043079 34.000111"
   version="1.1"
   id="svg1"
   xmlns="http://www.w3.org/2000/svg"
   xmlns:svg="http://www.w3.org/2000/svg">
  <defs
     id="defs1">
    <marker
       style="overflow:visible"
       id="ArrowWide"
       refX="0"
       refY="0"
       orient="auto-start-reverse"
       markerWidth="1"
       markerHeight="1"
       viewBox="0 0 1 1"
       preserveAspectRatio="xMidYMid">
      <path
         style="fill:none;stroke:context-stroke;stroke-width:1;stroke-linecap:butt"
         d="M 3,-3 0,0 3,3"
         transform="rotate(180,0.125,0)"
         id="path4" />
    </marker>
    <marker
       style="overflow:visible"
       id="ArrowWide-6"
       refX="0"
       refY="0"
       orient="auto-start-reverse"
       markerWidth="1"
       markerHeight="1"
       viewBox="0 0 1 1"
       preserveAspectRatio="xMidYMid">
      <path
         style="fill:none;stroke:context-stroke;stroke-width:1;stroke-linecap:butt"
         d="M 3,-3 0,0 3,3"
         transform="rotate(180,0.125,0)"
         id="path4-2" />
    </marker>
  </defs>
  <g
     id="layer1"
     transform="translate(-84.5,-122.13977)">
    <path
       id="path1"
       style="fill:none;fill-opacity:1;stroke:#ffffff;stroke-width:2;stroke-linecap:round;stroke-linejoin:round;stroke-dasharray:none;paint-order:markers fill stroke"
       d="m 101.50005,123.13977 c -8.836603,-3e-5 -16.000083,7.16346 -16.00005,16.00006 -2.8e-5,8.8366 7.163447,16.00008 16.00005,16.00005" />
    <path
       id="path2"
       style="fill:none;fill-opacity:1;stroke:#ffffff;stroke-width:2;stroke-linecap:round;stroke-linejoin:round;stroke-dasharray:none;paint-order:markers fill stroke"
       d="m 113.54302,155.13988 c 8.8366,3e-5 16.00009,-7.16345 16.00006,-16.00005 3e-5,-8.8366 -7.16346,-16.00009 -16.00006,-16.00006" />
    <path
       style="fill:none;fill-opacity:1;stroke:#66ff00;stroke-width:1.5;stroke-linecap:round;stroke-linejoin:round;stroke-dasharray:none;stroke-opacity:1;marker-start:url(#ArrowWide);paint-order:markers fill stroke"
       d="m 102.53038,128.64097 c 0,22.89481 0,22.89481 0,22.89481"
       id="path3" />
    <path
       style="fill:none;fill-opacity:1;stroke:#ff0000;stroke-width:1.5;stroke-linecap:round;stroke-linejoin:round;stroke-dasharray:none;stroke-opacity:1;marker-start:url(#ArrowWide-6);paint-order:markers fill stroke"
       d="m 112.59104,150.85012 c 0,-22.89481 0,-22.89481 0,-22.89481"
       id="path3-2" />
  </g>
</svg>
